<svg xmlns="http://www.w3.org/2000/svg" version="1.1" width="300" height="146.459" viewBox="0 0 300 146.459" overflow="visible" enable-background="new 0 0 300 146.459" xml:space="preserve"><g display="none"><image display="inline" width="244" height="141" transform="matrix(0.9999 0 0 0.9999 29 3.3398)"/></g><g display="none"><circle display="inline" cx="71.875" cy="46.104" r="20.125"/><circle display="inline" cx="232.875" cy="46.104" r="20.125"/><circle display="inline" cx="232.875" cy="57.104" r="20.125"/><circle display="inline" cx="168.125" cy="100.104" r="20.125"/><circle display="inline" cx="71.875" cy="104.104" r="20.125"/></g><path fill="#2E969D" d="M278.458 75.189C290.908 71.538 300 60.029 300 46.397V30c0-16.569-13.431-30-30-30H30C13.431 0 0 13.431 0 30v86.459c0 16.569 13.431 30 30 30h103.416v-30.932H40.994V32.795h216.894c0 0 0 4.472 0 9.316 0 4.845-0.435 5.094-2.422 5.901 0 0-92.133 34.209-93.417 34.739 -10.9 4.494-18.571 15.223-18.571 27.744v35.963H300v-30.745H183.913c0 0-0.372-4.658 5.031-6.895L278.458 75.189z"/></svg>